<?xml version="1.0" encoding="UTF-8"?>
<svg id="Capa_1" data-name="Capa 1" xmlns="http://www.w3.org/2000/svg" viewBox="0 0 200 48">
  <defs>
    <style>
      .cls-1 {
        font-family: Raleway-Bold, Raleway;
        font-size: 14px;
        font-weight: 700;
      }

      .cls-2 {
        letter-spacing: -.03em;
      }

      .cls-3 {
        fill: red;
      }
    </style>
  </defs>
  <text class="cls-1" transform="translate(156.28 32.14)"><tspan x="0" y="0">G</tspan><tspan class="cls-2" x="10.15" y="0">r</tspan><tspan x="15.2" y="0">oup</tspan></text>
  <path d="m106.53,8.79c-3.49,0-6.5,2.07-7.82,4.15-.85-2.59-2.97-4.15-6.31-4.15s-6.5,2.17-7.44,3.53v-2.97h-5.98v22.75h5.98v-15.31c.9-1.27,2.64-2.68,4.71-2.68,2.45,0,3.39,1.51,3.39,3.63v14.37h6.03v-15.35c.85-1.23,2.59-2.64,4.71-2.64,2.45,0,3.39,1.51,3.39,3.63v14.37h6.03V15.66c0-4.66-2.5-6.88-6.69-6.88Zm-58.71,18.38c-1.32,0-2.07-1.08-2.07-2.5v-10.27h4.62v-5.23h-4.62V2.96h-6.03v23.32c0,4.05,2.26,6.22,6.45,6.22,2.5,0,4.1-.66,4.99-1.46l-1.27-4.52c-.33.33-1.18.66-2.07.66Zm16.59-18.58c-3.58,0-7.16,1.13-9.94,3.58l2.26,4c1.93-1.79,4.19-2.68,6.64-2.68,3.01,0,4.99,1.51,4.99,3.82v3.16c-1.51-1.84-4.19-2.78-7.21-2.78-3.63,0-7.91,1.93-7.91,7.25s4.29,7.54,7.91,7.54c2.2,0,4.24-.6,5.78-1.65v-.03l-.79-2.81c-.8.29-1.69.43-2.59.43-2.36,0-4.29-1.22-4.29-3.34s1.93-3.44,4.29-3.44c1.93,0,3.82.66,4.8,1.98v8.29h5.98v-14.7c0-6.55-4.76-8.62-9.94-8.62ZM10.61,27.11c-1.32,0-2.07-1.08-2.07-2.5V1.2H2.51v25.01c0,4.05,2.27,6.22,6.46,6.22,2.5,0,4.1-.66,4.99-1.46l-1.27-4.52c-.33.33-1.18.66-2.07.66Zm118.41-.66c-.33.33-1.18.66-2.07.66-1.32,0-2.07-1.08-2.07-2.5V1.2h-6.03v25.01c0,4.05,2.27,6.22,6.46,6.22,2.5,0,4.1-.66,4.99-1.46l-1.27-4.52ZM26.87,8.65c-3.58,0-7.16,1.13-9.94,3.58l2.26,4c1.93-1.79,4.19-2.68,6.64-2.68,3.01,0,4.99,1.51,4.99,3.82v3.16c-1.51-1.84-4.19-2.78-7.21-2.78-3.63,0-7.91,1.93-7.91,7.25s4.29,7.54,7.91,7.54c2.2,0,4.24-.6,5.78-1.65v-.03l-.79-2.81c-.8.29-1.69.43-2.59.43-2.36,0-4.29-1.22-4.29-3.34s1.93-3.44,4.29-3.44c1.93,0,3.82.66,4.8,1.98v8.29h5.98v-14.7c0-6.55-4.76-8.62-9.94-8.62Z"/>
  <path class="cls-3" d="m153.11,3.81l-9.82,18.33-5.19-9.68c-.76-1.42-2.24-2.31-3.86-2.31h-4.22l9.82,18.33-9.82,18.33h4.22c1.61,0,3.1-.89,3.86-2.31l8.58-16.02-3.39-6.34h4.2c1.61,0,3.1-.89,3.86-2.31l8.58-16.02h-6.82Z"/>
</svg>